HIERARCHY
ROOT Hips
{
	OFFSET 0.000000 71.427986 0.000000
	CHANNELS 6 Xposition Yposition Zposition Xrotation Yrotation Zrotation
	JOINT Pelvis
	{
		OFFSET 0.000000 0.000000 0.000000
		CHANNELS 3 Xrotation Yrotation Zrotation
		JOINT LeftUpLeg
		{
			OFFSET 6.797100 -2.508499 -1.318700
			CHANNELS 3 Xrotation Yrotation Zrotation
			JOINT LeftLeg
			{
				OFFSET 0.069008 -29.241863 0.690200
				CHANNELS 3 Xrotation Yrotation Zrotation
				JOINT LeftFoot
				{
					OFFSET -0.069008 -29.568123 -0.266800
					CHANNELS 3 Xrotation Yrotation Zrotation
					JOINT LeftToeBase
					{
						OFFSET 3.145500 -8.631000 16.059900
						CHANNELS 3 Xrotation Yrotation Zrotation
						End Site
						{
							OFFSET 0.000000 18.501587 0.000000
						}
					}
				}
			}
			JOINT Left_ShortSleeve
			{
				OFFSET 0.265923 -10.480953 1.153800
				CHANNELS 3 Xrotation Yrotation Zrotation
				End Site
				{
					OFFSET 1.725763 19.823879 0.000000
				}
			}
		}
		JOINT RightUpLeg
		{
			OFFSET -6.797100 -2.508499 -1.318700
			CHANNELS 3 Xrotation Yrotation Zrotation
			JOINT RightLeg
			{
				OFFSET -0.082453 -29.241932 0.688000
				CHANNELS 3 Xrotation Yrotation Zrotation
				JOINT RightFoot
				{
					OFFSET 0.082453 -29.568058 -0.264600
					CHANNELS 3 Xrotation Yrotation Zrotation
					JOINT RightToeBase
					{
						OFFSET -3.115300 -8.682800 16.113400
						CHANNELS 3 Xrotation Yrotation Zrotation
						End Site
						{
							OFFSET 0.000000 18.567114 0.000000
						}
					}
				}
			}
			JOINT Right_ShortSleeve
			{
				OFFSET -0.265923 -10.480953 1.153800
				CHANNELS 3 Xrotation Yrotation Zrotation
				End Site
				{
					OFFSET -1.725766 19.823910 0.000000
				}
			}
		}
	}
	JOINT Spine
	{
		OFFSET 0.000000 13.368103 0.470500
		CHANNELS 3 Xrotation Yrotation Zrotation
		JOINT Spine1
		{
			OFFSET 0.147000 13.837402 0.538800
			CHANNELS 3 Xrotation Yrotation Zrotation
			JOINT Spine2
			{
				OFFSET 0.168000 16.242897 -1.435500
				CHANNELS 3 Xrotation Yrotation Zrotation
				JOINT Neck
				{
					OFFSET 0.217200 18.631500 -1.679100
					CHANNELS 3 Xrotation Yrotation Zrotation
					JOINT Head
					{
						OFFSET 0.000000 6.599396 1.385900
						CHANNELS 3 Xrotation Yrotation Zrotation
						JOINT Hat
						{
							OFFSET -0.532200 27.220596 -10.096100
							CHANNELS 3 Xrotation Yrotation Zrotation
							End Site
							{
								OFFSET 0.000000 22.029861 0.000000
							}
						}
						JOINT HairD
						{
							OFFSET -10.777400 17.437393 -1.325900
							CHANNELS 3 Xrotation Yrotation Zrotation
							JOINT HairD1
							{
								OFFSET -3.290299 -11.051193 1.062200
								CHANNELS 3 Xrotation Yrotation Zrotation
								End Site
								{
									OFFSET 0.000000 11.579437 0.000000
								}
							}
						}
						JOINT HairB
						{
							OFFSET -10.777400 17.437393 1.467900
							CHANNELS 3 Xrotation Yrotation Zrotation
							JOINT HairB1
							{
								OFFSET -1.561200 -12.956299 3.590200
								CHANNELS 3 Xrotation Yrotation Zrotation
								End Site
								{
									OFFSET 0.000000 13.534866 0.000000
								}
							}
						}
						JOINT HairA
						{
							OFFSET 9.713100 17.437393 1.467900
							CHANNELS 3 Xrotation Yrotation Zrotation
							JOINT HairA1
							{
								OFFSET 1.561200 -12.956299 3.590200
								CHANNELS 3 Xrotation Yrotation Zrotation
								End Site
								{
									OFFSET 0.000000 13.534866 0.000000
								}
							}
						}
						JOINT HairC
						{
							OFFSET 9.713100 17.437393 -1.325900
							CHANNELS 3 Xrotation Yrotation Zrotation
							JOINT HairC1
							{
								OFFSET 3.290300 -11.051193 1.062200
								CHANNELS 3 Xrotation Yrotation Zrotation
								End Site
								{
									OFFSET 0.000000 11.579437 0.000000
								}
							}
						}
					}
				}
				JOINT LeftShoulder
				{
					OFFSET 5.101800 15.108002 -2.763700
					CHANNELS 3 Xrotation Yrotation Zrotation
					JOINT LeftArm
					{
						OFFSET 9.825497 2.506317 -1.597400
						CHANNELS 3 Xrotation Yrotation Zrotation
						JOINT LeftForeArm
						{
							OFFSET 21.966244 0.000000 0.000000
							CHANNELS 3 Xrotation Yrotation Zrotation
							JOINT LeftHand
							{
								OFFSET 33.879036 0.000000 0.000000
								CHANNELS 3 Xrotation Yrotation Zrotation
								JOINT LeftHandThumb1
								{
									OFFSET 6.715286 -2.359680 3.363841
									CHANNELS 3 Xrotation Yrotation Zrotation
									JOINT LeftHandThumb2
									{
										OFFSET 2.507072 -1.447464 1.447461
										CHANNELS 3 Xrotation Yrotation Zrotation
										JOINT LeftHandThumb3
										{
											OFFSET 2.898338 -1.673355 1.673357
											CHANNELS 3 Xrotation Yrotation Zrotation
											End Site
											{
												OFFSET -0.295959 3.727692 -0.131651
											}
										}
									}
								}
								JOINT LeftHandIndex1
								{
									OFFSET 14.190811 -0.254547 3.840278
									CHANNELS 3 Xrotation Yrotation Zrotation
									JOINT LeftHandIndex2
									{
										OFFSET 3.551727 0.000000 -0.000000
										CHANNELS 3 Xrotation Yrotation Zrotation
										JOINT LeftHandIndex3
										{
											OFFSET 2.894196 0.000000 0.000000
											CHANNELS 3 Xrotation Yrotation Zrotation
											End Site
											{
												OFFSET -1.000603 2.690872 0.366626
											}
										}
									}
								}
								JOINT LeftHandMiddle1
								{
									OFFSET 13.776489 0.000000 0.000000
									CHANNELS 3 Xrotation Yrotation Zrotation
									JOINT LeftHandMiddle2
									{
										OFFSET 3.438232 0.000000 0.000000
										CHANNELS 3 Xrotation Yrotation Zrotation
										JOINT LeftHandMiddle3
										{
											OFFSET 3.691551 0.000000 0.000000
											CHANNELS 3 Xrotation Yrotation Zrotation
											End Site
											{
												OFFSET -1.082298 3.499527 0.457670
											}
										}
									}
								}
								JOINT LeftHandRing1
								{
									OFFSET 13.966164 -0.268127 -3.067488
									CHANNELS 3 Xrotation Yrotation Zrotation
									JOINT LeftHandRing2
									{
										OFFSET 3.162567 0.000000 0.000000
										CHANNELS 3 Xrotation Yrotation Zrotation
										JOINT LeftHandRing3
										{
											OFFSET 3.324348 0.000000 0.000000
											CHANNELS 3 Xrotation Yrotation Zrotation
											End Site
											{
												OFFSET -0.861900 3.184998 0.405154
											}
										}
									}
								}
								JOINT LeftHandPinky1
								{
									OFFSET 13.131393 -0.168503 -5.746925
									CHANNELS 3 Xrotation Yrotation Zrotation
									JOINT LeftHandPinky2
									{
										OFFSET 2.849182 0.000000 0.000000
										CHANNELS 3 Xrotation Yrotation Zrotation
										JOINT LeftHandPinky3
										{
											OFFSET 2.805038 0.000000 0.000000
											CHANNELS 3 Xrotation Yrotation Zrotation
											End Site
											{
												OFFSET -0.882500 2.642609 0.325652
											}
										}
									}
								}
							}
							JOINT Left_Sleeve
							{
								OFFSET 6.592125 -0.646545 0.805568
								CHANNELS 3 Xrotation Yrotation Zrotation
								End Site
								{
									OFFSET -0.000179 20.275787 -0.000000
								}
							}
						}
					}
				}
				JOINT RightShoulder
				{
					OFFSET -5.731700 15.108002 -2.763700
					CHANNELS 3 Xrotation Yrotation Zrotation
					JOINT RightArm
					{
						OFFSET -9.825497 2.506317 -1.597400
						CHANNELS 3 Xrotation Yrotation Zrotation
						JOINT RightForeArm
						{
							OFFSET -21.966242 0.000000 0.000000
							CHANNELS 3 Xrotation Yrotation Zrotation
							JOINT RightHand
							{
								OFFSET -33.879032 0.000000 0.000000
								CHANNELS 3 Xrotation Yrotation Zrotation
								JOINT RightHandThumb1
								{
									OFFSET -6.715286 -2.359680 3.363841
									CHANNELS 3 Xrotation Yrotation Zrotation
									JOINT RightHandThumb2
									{
										OFFSET -2.507072 -1.447464 1.447461
										CHANNELS 3 Xrotation Yrotation Zrotation
										JOINT RightHandThumb3
										{
											OFFSET -2.898338 -1.673355 1.673357
											CHANNELS 3 Xrotation Yrotation Zrotation
											End Site
											{
												OFFSET 0.295959 3.727692 -0.131651
											}
										}
									}
								}
								JOINT RightHandIndex1
								{
									OFFSET -14.190811 -0.254547 3.840278
									CHANNELS 3 Xrotation Yrotation Zrotation
									JOINT RightHandIndex2
									{
										OFFSET -3.551727 0.000000 -0.000000
										CHANNELS 3 Xrotation Yrotation Zrotation
										JOINT RightHandIndex3
										{
											OFFSET -2.894196 0.000000 0.000000
											CHANNELS 3 Xrotation Yrotation Zrotation
											End Site
											{
												OFFSET 1.000603 2.690872 0.366626
											}
										}
									}
								}
								JOINT RightHandMiddle1
								{
									OFFSET -13.776489 0.000000 0.000000
									CHANNELS 3 Xrotation Yrotation Zrotation
									JOINT RightHandMiddle2
									{
										OFFSET -3.438232 0.000000 0.000000
										CHANNELS 3 Xrotation Yrotation Zrotation
										JOINT RightHandMiddle3
										{
											OFFSET -3.691551 0.000000 0.000000
											CHANNELS 3 Xrotation Yrotation Zrotation
											End Site
											{
												OFFSET 1.082298 3.499527 0.457670
											}
										}
									}
								}
								JOINT RightHandRing1
								{
									OFFSET -13.966164 -0.268127 -3.067488
									CHANNELS 3 Xrotation Yrotation Zrotation
									JOINT RightHandRing2
									{
										OFFSET -3.162567 0.000000 0.000000
										CHANNELS 3 Xrotation Yrotation Zrotation
										JOINT RightHandRing3
										{
											OFFSET -3.324348 0.000000 0.000000
											CHANNELS 3 Xrotation Yrotation Zrotation
											End Site
											{
												OFFSET 0.861900 3.184998 0.405154
											}
										}
									}
								}
								JOINT RightHandPinky1
								{
									OFFSET -13.131393 -0.168503 -5.746925
									CHANNELS 3 Xrotation Yrotation Zrotation
									JOINT RightHandPinky2
									{
										OFFSET -2.849182 0.000000 0.000000
										CHANNELS 3 Xrotation Yrotation Zrotation
										JOINT RightHandPinky3
										{
											OFFSET -2.805038 0.000000 0.000000
											CHANNELS 3 Xrotation Yrotation Zrotation
											End Site
											{
												OFFSET 0.882500 2.642609 0.325652
											}
										}
									}
								}
							}
							JOINT Right_Sleeve
							{
								OFFSET -6.592125 -0.646545 0.805568
								CHANNELS 3 Xrotation Yrotation Zrotation
								End Site
								{
									OFFSET 0.000179 20.275787 -0.000000
								}
							}
						}
					}
				}
				JOINT Bind_Right_JacketString
				{
					OFFSET -3.534800 11.969597 7.200700
					CHANNELS 3 Xrotation Yrotation Zrotation
					JOINT Bind_Right_JacketString1
					{
						OFFSET -0.319900 -6.102600 2.794100
						CHANNELS 3 Xrotation Yrotation Zrotation
						End Site
						{
							OFFSET 0.000000 6.719452 0.000000
						}
					}
				}
				JOINT Bind_Left_JacketString
				{
					OFFSET 2.904800 11.969597 7.200700
					CHANNELS 3 Xrotation Yrotation Zrotation
					JOINT Bind_Left_JacketString1
					{
						OFFSET 0.364800 -5.904503 3.186800
						CHANNELS 3 Xrotation Yrotation Zrotation
						End Site
						{
							OFFSET 0.000000 6.719513 0.000000
						}
					}
				}
				JOINT HairE
				{
					OFFSET 5.915200 17.612701 -11.592200
					CHANNELS 3 Xrotation Yrotation Zrotation
					JOINT HairE1
					{
						OFFSET 0.289200 -7.171898 -1.284500
						CHANNELS 3 Xrotation Yrotation Zrotation
						End Site
						{
							OFFSET 0.000000 7.291756 0.000000
						}
					}
				}
				JOINT HairF
				{
					OFFSET -0.864800 17.612701 -11.592200
					CHANNELS 3 Xrotation Yrotation Zrotation
					JOINT HairF1
					{
						OFFSET 0.000000 -14.087097 -2.127501
						CHANNELS 3 Xrotation Yrotation Zrotation
						End Site
						{
							OFFSET 0.000000 14.246841 0.000000
						}
					}
				}
				JOINT HairG
				{
					OFFSET -8.087700 17.612701 -11.592200
					CHANNELS 3 Xrotation Yrotation Zrotation
					JOINT HairG1
					{
						OFFSET -0.293600 -6.081398 -0.910100
						CHANNELS 3 Xrotation Yrotation Zrotation
						End Site
						{
							OFFSET 0.000000 6.156120 0.000000
						}
					}
				}
			}
		}
	}
	JOINT Pouch
	{
		OFFSET 0.000000 4.394501 10.847300
		CHANNELS 3 Xrotation Yrotation Zrotation
		End Site
		{
			OFFSET 0.000000 21.880577 0.000000
		}
	}
	JOINT Bag
	{
		OFFSET -13.229000 4.813004 -0.593300
		CHANNELS 3 Xrotation Yrotation Zrotation
		End Site
		{
			OFFSET 0.000000 21.880577 0.000000
		}
	}
	JOINT OccupyGuyFacialAnim_Joint
	{
		OFFSET 1.000000 -70.206398 -1.655000
		CHANNELS 3 Xrotation Yrotation Zrotation
		End Site
		{
			OFFSET 0.000000 21.880577 0.000000
		}
	}
}
MOTION
Frames: 4
Frame Time: 0.016667
2.845424 63.627403 0.120254 7.697731 -10.329244 1.610731 0.000000 -0.000000 0.000000 -47.678040 6.241848 16.980658 42.403522 5.515560 5.021356 0.457828 0.735243 -14.387363 -0.000000 -0.000000 0.000000 -0.000002 0.000000 -0.000000 -26.668299 -4.232723 -27.847624 36.791849 -1.909094 -1.606512 -12.236507 -4.121331 26.026583 -0.000000 0.000002 -0.000000 -0.000001 0.000001 -0.000001 7.618764 1.473968 -2.458628 6.431373 1.228088 -0.932161 6.450696 1.172316 -0.845380 -3.222595 -0.333306 -1.041938 -12.897087 -4.165312 4.309513 0.000001 0.000000 0.000000 0.000001 0.000000 0.000000 0.000001 0.000000 0.000000 0.000001 0.000000 0.000000 0.000001 -0.000001 0.000000 0.000001 0.000000 0.000000 0.000001 -0.000001 0.000000 0.000001 0.000000 0.000000 0.000001 0.000000 0.000000 5.349775 -35.475907 4.326025 -77.161214 -31.121333 -22.573230 -0.000001 -27.636889 -0.000002 -131.009817 7.371646 18.178612 39.578733 -17.197296 -21.086426 11.236025 23.988441 2.901706 0.000002 -0.000000 0.000002 3.600032 6.051863 -61.463479 4.128148 6.308884 -66.366189 0.000001 -0.000000 0.000002 2.451434 5.270990 -49.859913 3.793771 6.152674 -63.285937 -0.000000 0.000001 0.000001 2.452898 5.272205 -49.876043 3.792036 6.151815 -63.269791 -0.000000 0.000000 -0.000002 7.187317 7.991500 -61.391769 4.144312 2.228357 -66.583191 -0.000000 -0.000001 0.000003 0.000004 -0.000000 -0.000001 3.654525 31.100440 -18.637122 -34.428989 31.033081 9.535799 -0.000004 29.388275 0.000004 8.244905 12.377326 -3.343645 29.376449 16.962604 20.541340 9.559540 -25.704462 -5.659317 0.000003 -0.000001 0.000000 2.155502 -5.036570 46.317149 4.033392 -6.309964 65.142888 -0.000002 -0.000001 0.000002 1.448239 -4.252503 37.599706 3.476841 -6.022575 59.964785 0.000001 0.000000 -0.000001 1.448233 -4.252471 37.599700 3.476834 -6.022601 59.964792 -0.000000 -0.000000 -0.000001 2.155490 -5.036566 46.317159 4.033410 -6.309991 65.142902 -0.000000 0.000001 -0.000003 0.000000 -0.000000 0.000000 -0.000000 -0.000000 -0.000000 0.000001 0.000000 0.000000 -0.000000 -0.000000 -0.000000 -0.000000 -0.000000 -0.000000 -0.000000 -0.000000 -0.000000 0.000001 0.000000 0.000000 -0.000000 -0.000000 -0.000000 -0.000000 -0.000000 -0.000000 -0.000000 -0.000000 -0.000000 0.000001 0.000000 0.000000 0.000000 -0.000000 0.000000 0.000000 -0.000000 0.000000 0.000000 -0.000000 0.000000 
2.931615 63.537651 0.162354 7.772164 -9.907718 1.394682 -0.000000 0.000001 -0.000000 -48.150771 5.933503 17.023372 43.020793 5.220137 4.794177 0.122042 0.771614 -14.130715 0.000000 0.000000 0.000000 -0.000000 -0.000000 0.000001 -26.643851 -4.543979 -27.847042 36.899383 -2.023483 -1.641893 -12.435003 -4.185739 26.130429 -0.000000 -0.000003 0.000000 0.000000 0.000000 -0.000000 7.623365 1.324335 -2.527426 6.424122 1.146838 -0.979022 6.443378 1.089222 -0.899068 -3.752345 -0.436694 -0.755376 -12.941244 -4.384520 4.621762 0.000000 0.000001 -0.000000 0.000000 0.000001 -0.000000 0.000000 0.000001 0.000000 0.000000 0.000001 -0.000000 0.000000 0.000000 -0.000000 0.000000 0.000001 -0.000000 0.000000 0.000000 -0.000000 0.000000 0.000001 -0.000000 0.000000 0.000001 -0.000000 5.326301 -35.461031 4.512443 -76.482088 -31.696927 -21.754414 -0.000025 -27.909727 0.000011 -131.195503 7.258899 17.612947 39.578730 -17.197300 -21.086426 11.236021 23.988444 2.901705 0.000000 -0.000000 0.000003 3.600033 6.051863 -61.463479 4.128147 6.308883 -66.366189 0.000002 0.000001 -0.000002 2.451434 5.270991 -49.859916 3.793770 6.152676 -63.285931 0.000001 0.000001 -0.000001 2.452899 5.272206 -49.876046 3.792036 6.151814 -63.269791 -0.000002 0.000000 -0.000002 7.187318 7.991500 -61.391769 4.144310 2.228357 -66.583184 0.000001 -0.000001 0.000003 0.000004 0.000001 -0.000000 3.490716 30.381330 -18.452915 -35.039915 31.378080 10.047768 -0.000002 29.551565 0.000003 7.728505 12.424316 -3.658102 29.376449 16.962604 20.541340 9.559541 -25.704466 -5.659315 -0.000001 0.000000 -0.000000 2.155500 -5.036569 46.317149 4.033392 -6.309964 65.142902 -0.000001 -0.000000 0.000000 1.448238 -4.252506 37.599706 3.476840 -6.022576 59.964785 -0.000000 0.000000 0.000001 1.448233 -4.252473 37.599700 3.476832 -6.022603 59.964785 -0.000001 0.000000 -0.000000 2.155489 -5.036566 46.317155 4.033409 -6.309991 65.142895 0.000001 0.000001 -0.000001 -0.000001 -0.000000 -0.000000 0.000002 -0.000000 -0.000000 0.000002 -0.000000 -0.000000 0.000002 -0.000000 -0.000000 0.000002 -0.000000 -0.000000 0.000002 -0.000000 -0.000000 0.000002 -0.000000 -0.000000 0.000002 -0.000000 -0.000000 0.000002 -0.000000 -0.000000 0.000002 -0.000000 -0.000000 0.000002 -0.000000 -0.000000 -0.000000 0.000001 -0.000000 -0.000000 0.000001 -0.000000 -0.000000 0.000001 -0.000000 
3.033047 63.436813 0.222978 7.720906 -9.551045 1.291037 -0.000000 -0.000000 -0.000000 -48.483971 5.736718 16.925714 43.687181 4.997202 4.678572 -0.230594 0.811582 -13.941857 0.000000 -0.000001 0.000000 -0.000002 0.000000 0.000000 -26.555229 -4.752298 -28.013343 37.103305 -2.068973 -1.635044 -12.686477 -4.258226 26.206662 0.000000 -0.000001 -0.000000 -0.000002 0.000001 -0.000001 7.641448 1.209437 -2.608587 6.433795 1.091085 -1.028593 6.452329 1.034178 -0.954310 -4.162271 -0.548712 -0.475728 -12.750507 -4.641915 4.905307 0.000002 -0.000000 0.000000 0.000002 -0.000000 0.000000 0.000002 -0.000000 0.000000 0.000002 -0.000000 -0.000000 0.000001 0.000000 -0.000000 0.000002 -0.000000 -0.000000 0.000001 0.000000 -0.000000 0.000002 -0.000000 0.000000 0.000002 -0.000000 0.000000 5.318323 -35.463701 4.617422 -75.973178 -32.528066 -21.224043 0.000004 -27.688216 0.000004 -131.101738 6.992732 16.947887 39.578730 -17.197298 -21.086430 11.236021 23.988442 2.901707 -0.000000 -0.000000 -0.000001 3.600032 6.051861 -61.463479 4.128148 6.308882 -66.366189 0.000002 0.000000 -0.000000 2.451433 5.270989 -49.859916 3.793768 6.152673 -63.285937 0.000001 0.000001 -0.000003 2.452898 5.272205 -49.876053 3.792035 6.151817 -63.269791 -0.000001 0.000001 -0.000002 7.187318 7.991497 -61.391776 4.144311 2.228355 -66.583191 0.000002 0.000001 -0.000002 -0.000001 0.000001 -0.000001 3.343500 29.595674 -18.253971 -35.737606 31.911313 10.742128 0.000002 29.323395 -0.000002 7.359822 12.604389 -3.966192 29.376456 16.962602 20.541343 9.559539 -25.704461 -5.659317 -0.000002 0.000000 -0.000000 2.155500 -5.036570 46.317149 4.033389 -6.309964 65.142888 -0.000001 0.000001 -0.000001 1.448237 -4.252505 37.599710 3.476840 -6.022576 59.964785 0.000002 -0.000001 -0.000001 1.448231 -4.252474 37.599693 3.476833 -6.022603 59.964785 -0.000001 -0.000001 -0.000001 2.155489 -5.036566 46.317155 4.033407 -6.309988 65.142902 -0.000000 0.000001 -0.000003 -0.000000 -0.000000 -0.000000 0.000001 -0.000000 0.000000 0.000001 0.000000 -0.000001 0.000001 -0.000000 0.000000 0.000001 -0.000000 0.000000 0.000001 -0.000000 0.000000 0.000001 0.000000 -0.000001 0.000001 -0.000000 0.000000 0.000001 -0.000000 0.000000 0.000001 -0.000000 0.000000 0.000001 0.000000 -0.000001 -0.000000 -0.000000 -0.000000 -0.000000 -0.000000 -0.000000 -0.000000 -0.000000 -0.000000 
3.138454 63.336433 0.289313 7.601588 -9.391884 1.292734 0.000001 -0.000000 -0.000000 -48.753942 5.866725 16.795143 44.339081 4.761969 4.799903 -0.573671 0.853430 -13.842691 0.000000 -0.000000 0.000000 0.000001 -0.000000 0.000000 -26.466276 -4.767124 -28.231480 37.350773 -2.058068 -1.637973 -12.913421 -4.325651 26.285498 0.000000 -0.000001 0.000000 0.000002 -0.000002 -0.000002 7.674424 1.133209 -2.699680 6.458411 1.059677 -1.078917 6.476069 1.004668 -1.008483 -4.451147 -0.648958 -0.252692 -12.418166 -4.890464 5.127134 0.000001 -0.000001 -0.000000 0.000001 -0.000001 -0.000000 0.000001 -0.000001 0.000000 0.000001 -0.000001 -0.000000 0.000001 -0.000000 -0.000000 0.000001 -0.000001 -0.000000 0.000001 -0.000000 -0.000000 0.000001 -0.000001 -0.000000 0.000001 -0.000001 -0.000000 5.324665 -35.494451 4.670776 -75.597763 -33.466557 -20.902971 0.000008 -27.148696 0.000015 -130.986568 6.692520 16.411310 39.578733 -17.197296 -21.086426 11.236028 23.988442 2.901704 0.000002 -0.000001 0.000000 3.600031 6.051861 -61.463479 4.128149 6.308880 -66.366189 0.000001 0.000000 -0.000000 2.451433 5.270991 -49.859910 3.793768 6.152673 -63.285937 0.000001 0.000000 0.000001 2.452897 5.272207 -49.876053 3.792036 6.151818 -63.269791 -0.000001 0.000000 -0.000002 7.187317 7.991502 -61.391769 4.144310 2.228354 -66.583198 0.000001 -0.000001 0.000001 0.000003 -0.000000 0.000001 3.228986 28.899343 -18.100975 -36.415249 32.483082 11.481578 0.000002 28.812644 -0.000002 7.126548 12.795547 -4.183795 29.376456 16.962601 20.541338 9.559540 -25.704469 -5.659318 0.000004 -0.000001 0.000001 2.155501 -5.036569 46.317149 4.033393 -6.309965 65.142895 -0.000001 0.000001 -0.000005 1.448239 -4.252505 37.599710 3.476839 -6.022577 59.964785 0.000001 -0.000001 -0.000001 1.448231 -4.252473 37.599700 3.476832 -6.022604 59.964785 0.000001 -0.000001 0.000001 2.155490 -5.036564 46.317155 4.033407 -6.309987 65.142902 -0.000001 0.000001 0.000001 -0.000001 0.000000 0.000000 0.000000 -0.000000 0.000000 0.000000 0.000000 0.000000 0.000000 -0.000000 0.000000 0.000000 -0.000000 0.000000 0.000000 -0.000000 0.000000 0.000000 0.000000 0.000000 0.000000 -0.000000 0.000000 0.000000 -0.000000 0.000000 0.000000 -0.000000 0.000000 0.000000 0.000000 0.000000 0.000001 -0.000000 -0.000000 0.000001 -0.000000 -0.000000 0.000001 -0.000000 -0.000000 
